#N canvas 46 122 571 500 10;
#X obj 183 392 dac~;
#X obj 351 203 loadbang;
#X obj 296 296 line~;
#X obj 296 263 pack 0 50;
#X obj 296 226 r gain;
#X obj 182 336 *~;
#X obj 182 235 osc~ 220;
#X msg 351 228 0;
#X connect 1 0 7 0;
#X connect 2 0 5 1;
#X connect 3 0 2 0;
#X connect 4 0 3 0;
#X connect 5 0 0 0;
#X connect 5 0 0 1;
#X connect 6 0 5 0;
#X connect 7 0 3 0;
